<?xml version="1.0" encoding="utf-8"?>
<!-- Generator: Adobe Illustrator 27.5.0, SVG Export Plug-In . SVG Version: 6.00 Build 0)  -->
<svg version="1.1" xmlns="http://www.w3.org/2000/svg" xmlns:xlink="http://www.w3.org/1999/xlink" x="0px" y="0px"
	 viewBox="0 0 500 500" style="enable-background:new 0 0 500 500;" xml:space="preserve">
<g id="BACKGROUND">
	<rect style="fill:#FFFFFF;" width="500" height="500"/>
</g>
<g id="OBJECTS">
	<path style="fill:#061E11;" d="M344.695,218.049c-1.076-2.913-1.204-14.687-17.341-12.853c1.947-3.849,3.365-7.981,4.661-12.109
		c1.577-5.02,2.908-10.874-0.048-15.228c-0.959-1.412-2.361-2.652-2.601-4.341c-0.218-1.53,0.586-2.997,1.316-4.36
		c0.73-1.363,1.431-2.919,1.002-4.404c-0.429-1.485-2.595-2.413-3.568-1.211c0.246-1.554,0.773-3.546,1.019-5.099
		c-1.726,0.604-2.566-2.082-2.356-3.899c0.665-5.765,1.86-11.468,3.563-17.015c0.626-2.037,1.329-4.136,1.068-6.251
		c-0.355-2.881-2.482-5.292-4.973-6.781c-2.492-1.49-5.349-2.222-8.133-3.042c-8.862-2.612-17.404-6.303-25.379-10.967
		c-0.378-0.221-0.78-0.474-0.933-0.885c-0.211-0.57,0.14-1.174,0.354-1.743c0.797-2.118-0.414-4.568-2.233-5.914
		c-0.178-0.131-0.363-0.248-0.549-0.364c0.034-0.092,0.077-0.178,0.109-0.271c0.515-1.479,0.747-3.056,1.382-4.488
		c0.611-1.379,1.571-2.57,2.522-3.74c2.138-2.632,4.368-5.558,5.398-8.703c0.595-0.419,1.176-0.857,1.715-1.347
		c1.5-1.362,2.736-3.097,3.153-5.079c0.211-1.002,0.209-2.036,0.172-3.059c-0.017-0.47-0.015-2.007-0.117-3.587
		c0.463-0.459,0.926-0.918,1.389-1.377c1.25-1.239,2.59-2.7,2.512-4.457c-0.054-1.213-0.79-2.28-1.542-3.233
		c-1.356-1.717-2.859-3.318-4.489-4.778c-0.771-0.691-1.586-1.361-2.541-1.762c-1.067-0.448-2.243-0.471-3.35-0.193
		c-0.182-0.038-0.364-0.074-0.548-0.099c0.043-0.794-0.013-1.593-0.195-2.369c-0.479-2.042-1.812-4.075-3.611-5.196
		c-0.336-0.516-0.887-0.88-1.426-1.202c-3.732-2.235-7.828-4.523-12.153-4.05c-2.824,0.309-5.372,1.772-7.826,3.203
		c-6.57,3.83-13.14,7.659-19.709,11.489c0.006,3.045,0.012,6.089,0.018,9.134c0.883-1.296,1.766-2.592,2.649-3.888
		c-1.426,3.501-2.036,7.331-1.767,11.101c-1.037-0.72-1.999,1.022-2.081,2.282c-0.165,2.527-0.272,5.274,1.175,7.353
		c0.61,0.878,1.456,1.563,2.143,2.382c2.763,3.29,2.564,8.043,2.149,12.343c-2.525,1.457-4.225,4.524-3.513,7.404
		c-1.167-1.088-3.19-1.077-4.344,0.025c-0.514,0.49-0.862,1.152-1.444,1.559c-0.765,0.535-1.773,0.524-2.706,0.472
		c-6.281-0.349-12.594-1.623-18.814-0.68c-10.226,1.551-18.623,8.836-25.417,16.635c-6.794,7.799-12.74,16.53-21.042,22.701
		c-2.609,1.939-5.458,3.634-7.575,6.101c-2.117,2.467-3.392,5.994-2.18,9.01c-0.928,0.012-2.052,0.014-3.146,0.018
		c-1.422,0.005-2.554,1.258-2.349,2.665c0.113,0.777,0.343,1.536,0.687,2.242c-0.847-0.258-2.177,1.266-2.695,1.983
		c-0.518,0.717-0.7,1.62-0.814,2.497c-0.197,1.516-0.229,3.053-0.096,4.575c-1.01,2.148-2.776,5.44-3.583,7.672
		c-0.625,1.729-1.197,3.541-1.033,5.373c0.163,1.832,1.233,3.698,2.98,4.272c0.627,0.206,1.485,0.442,1.461,1.103
		c-0.011,0.297-0.222,0.543-0.418,0.766c-0.982,1.117-1.889,2.373-2.178,3.831c-0.288,1.458,0.193,3.155,1.469,3.917
		c0.958,0.572,2.145,0.529,3.24,0.737c1.355,0.258,2.708,0.909,4.042,1.055c1.202,3.272,3.089,6.883,4.654,9.754
		c0.394,0.721,1.03,1.544,1.834,1.373c0.225-0.048,0.425-0.173,0.62-0.295c0.397-0.25,0.793-0.5,1.19-0.749
		c1.618,2.12,3.383,4.127,4.058,5.161c6.092,9.321,11.291,19.035,16.524,28.846c0.892,1.793,1.883,3.719,3.679,4.606
		c1.389,0.686,2.795,0.601,4.224,0.169c-2.305,7.851-4.148,15.838-5.477,23.913c-0.413,2.512-0.767,5.162,0.129,7.545
		c0.608,1.617,1.787,3.122,1.673,4.847c-0.092,1.41-1.056,2.805-0.586,4.138c0.362,1.027,1.436,1.581,2.308,2.233
		c3.673,2.743,4.272,7.882,5.072,12.396c1.961,11.074,6.849,21.358,11.932,31.42l-12.838,113.763l6.281,1.578l4.496-2.667
		l7.329-60.373l10.438,2.029c-1.671,3.324-3.069,6.741-3.355,10.553c-0.387,5.145,1.428,10.183,3.418,14.942
		c1.156,2.763,2.426,5.566,4.551,7.678c2.124,2.111,5.302,3.414,8.167,2.544c2.607-0.792,4.357-3.112,5.669-5.56l0.314,11.783
		l7.326,1.186l3.004-2.678l-0.232-34.837l1.604,0.312l2.144,38.259l0.86,15.348l0.882,15.762l6.389,1.513l4.605-2.634l-0.762-15.599
		l-0.61-12.551l-1.951-39.978l25.156-8.926l8.547,54.042l6.499,1.045l2.863-2.34l-19.648-136.477
		c3.091-3.764,5.854-7.798,8.194-12.07c3.369-6.148,5.933-12.78,10.089-18.427c2.47-3.357,5.458-6.303,7.985-9.618
		c6.097-8,9.253-17.779,13.168-27.044c0.507-1.199,1.049-2.424,1.972-3.342c0.758-0.754,1.73-1.255,2.541-1.951
		c2.568-2.203,3.057-6.442,1.058-9.172C345.986,224.752,345.679,220.713,344.695,218.049z M304.331,62.559
		c0.612,0.839,1.131,1.797,1.19,2.834c0.074,1.311-0.553,2.423-1.368,3.482c0.124-1.642,0.052-3.284-0.307-4.909
		c-0.263-1.192-0.747-2.353-1.387-3.422C303.131,61.113,303.76,61.776,304.331,62.559z M291.784,51.053
		c0.582,0.862,0.937,1.86,0.884,2.891c-0.031,0.602-0.197,1.185-0.415,1.749c-0.258,0.124-0.488,0.3-0.593,0.52
		c-0.038-0.035-0.081-0.067-0.137-0.09C291.61,54.433,291.697,52.743,291.784,51.053z M247.581,336.639
		c-0.548-4.856,0.153-9.819-0.72-14.627c-1.076-5.921-4.436-11.13-7.548-16.281c-0.649-1.074-1.303-2.192-1.462-3.436
		c-0.155-1.214,0.179-2.433,0.245-3.656c0.152-2.829-1.306-5.644-3.601-7.283l0.194-1.597c2.859-1.84,4.189-6.029,2.487-9.057
		c-0.352-0.626-0.818-1.255-0.971-1.932l11.19,1.348l1.681,63.174C248.365,341.128,247.837,338.915,247.581,336.639z
		 M268.915,279.234l13.138-1.644l0.822,5.196c-0.729,0.763-1.277,1.77-1.533,2.781c-0.574,2.271-0.262,4.694-0.838,6.964
		c-0.577,2.27-2.624,4.522-4.91,4.012c-0.781-0.174-1.479-0.652-2.272-0.751c-1.334-0.166-2.514,0.748-3.518,1.671L268.915,279.234z
		 M203.618,230.16c-4.693-8.788-9.385-17.575-14.078-26.363c0.592-0.509,1.079-1.102,1.275-1.849c0.256-0.979-0.046-2.01-0.38-2.965
		c-1.028-2.936-2.402-5.747-4.054-8.383c0.372-0.881,0.313-1.929-0.335-2.762c-0.821-1.056-1.898-1.914-3.127-2.443
		c0.957-0.911,1.939-1.124,3.107-1.741c1.168-0.617,1.929-2.464,0.808-3.163c2.377-1.08,4.082-3.512,4.286-6.114
		c0.067-0.856-0.038-1.777-0.575-2.447c-0.536-0.67-1.605-0.958-2.281-0.429c3.954-2.808,7.44-5.776,11.395-8.584
		c-0.078,1.012,1.388,1.276,2.38,1.065c4.695-0.999,8.923-4.023,11.387-8.143c-0.268,4.209-1.152,8.859-0.872,13.067
		c0.091,1.366,0.217,2.758,0.759,4.015c0.696,1.616,2.043,2.924,2.527,4.616c1.03,3.598-2.136,6.983-2.8,10.666
		c-0.586,3.247,0.817,6.488,2.187,9.49c1.527,3.346-1.701,6.398-3.844,9.387c-0.641,0.894-1.38,1.745-1.768,2.775
		c-1.041,2.765,0.716,5.727,2.395,8.157c-1.88,0.19-3.002,2.231-3.304,4.096c-0.429,2.65,0.167,5.445,1.607,7.708
		c-0.632,1.464-1.255,2.931-1.852,4.41c-0.917-0.158-1.786-0.428-2.537-0.974C204.874,232.488,204.229,231.304,203.618,230.16z
		 M226.437,357.731c3.255,6.404,6.51,12.807,9.764,19.211c0.59,1.16,1.223,2.344,1.986,3.401l-15.001,4.165L226.437,357.731z
		 M226.823,388.016l10.281-2.854c-0.681,1.496-1.443,2.962-2.221,4.421L226.823,388.016z M261.414,367.089l0.548,9.785l-0.484-0.072
		L261.414,367.089z M261.599,394.777l-0.091-13.568l0.703,0.104l0.77,13.732L261.599,394.777z M274.569,395.109l-0.588-12.053
		l24.381,3.611L274.569,395.109z M273.764,378.622l-1.553-31.832c2.81,5.701,6.948,10.926,10.984,15.903
		c1.281,1.58,2.81,3.292,4.841,3.395c3.037,0.154,4.885-3.207,5.978-6.045c0.255-0.663,0.51-1.332,0.762-2.005l3.838,24.264
		L273.764,378.622z M300.859,212.397c-0.699,0.268-1.406,0.507-2.112,0.753c0.341-1.251-0.283-2.827-1.563-2.777
		c2.193-2.24,2.866-5.835,1.632-8.717c-1.233-2.882-4.299-4.876-7.434-4.837l5.994-8.782c2.131,4.665,3.848,9.077,5.978,13.742
		c1.306,2.858,2.668,5.772,4.647,8.181C305.606,210.693,303.224,211.49,300.859,212.397z"/>
</g>
</svg>
